<?xml version="1.0" ?><!DOCTYPE svg  PUBLIC '-//W3C//DTD SVG 1.1//EN'  'http://www.w3.org/Graphics/SVG/1.1/DTD/svg11.dtd'><svg enable-background="new 0 0 128 128" id="Слой_1" version="1.1" viewBox="0 0 128 128" xml:space="preserve" xmlns="http://www.w3.org/2000/svg" xmlns:xlink="http://www.w3.org/1999/xlink"><g><circle cx="64" cy="64" fill="#EEEBA8" r="62"/><g><g><g><path d="M126,64c0-11.5-3.1-22.2-8.6-31.4H39c-8.3,0-15,6.7-15,15v63.8c10.8,9.1,24.8,14.6,40,14.6      C98.2,126,126,98.2,126,64z" fill="#008E9D"/></g></g><g><g><path d="M117.4,32.6H39c-8.3,0-15,6.7-15,15v20.3h101.9c0.1-1.3,0.1-2.6,0.1-3.9C126,52.5,122.9,41.8,117.4,32.6      z" fill="#C35D55"/></g></g><g><g><path d="M24,66.6c-0.7,0-1.2,0.6-1.2,1.2s0.6,1.2,1.2,1.2h101.8c0.1-0.8,0.1-1.7,0.2-2.5H24z" fill="#2D2E2D"/></g></g><g><g><circle cx="42.1" cy="49.6" fill="#E7E8E3" r="7.5"/></g></g><g><g><path d="M118.4,49.6c0,4.1,3.2,7.4,7.3,7.5c-0.5-4.9-1.6-9.6-3.3-14.1C120,44.3,118.4,46.8,118.4,49.6z" fill="#E7E8E3"/></g></g><g><g><circle cx="84" cy="49.6" fill="#E7E8E3" r="7.5"/></g></g><g><g><path d="M42.1,40.9c-4.8,0-8.8,3.9-8.8,8.8s3.9,8.8,8.8,8.8s8.8-3.9,8.8-8.8S47,40.9,42.1,40.9z M42.1,55.9      c-3.4,0-6.2-2.8-6.2-6.2s2.8-6.2,6.2-6.2s6.2,2.8,6.2,6.2S45.6,55.9,42.1,55.9z" fill="#2D2E2D"/></g></g><g><g><path d="M119.6,49.6c0-2.3,1.3-4.3,3.2-5.4c-0.3-0.8-0.6-1.6-0.9-2.4c-2.8,1.4-4.8,4.4-4.8,7.8      c0,4.8,3.9,8.7,8.6,8.7c-0.1-0.8-0.2-1.7-0.3-2.5C122.2,55.7,119.6,53,119.6,49.6z" fill="#2D2E2D"/></g></g><g><g><path d="M84,40.9c-4.8,0-8.8,3.9-8.8,8.8s3.9,8.8,8.8,8.8s8.8-3.9,8.8-8.8S88.8,40.9,84,40.9z M84,55.9      c-3.4,0-6.2-2.8-6.2-6.2s2.8-6.2,6.2-6.2s6.2,2.8,6.2,6.2S87.4,55.9,84,55.9z" fill="#2D2E2D"/></g></g><g><g><path d="M25.2,47.6c0-7.6,6.2-13.8,13.8-13.8h79.2c-0.5-0.8-1-1.7-1.5-2.5H39c-9,0-16.2,7.3-16.2,16.2v62.7      c0.8,0.7,1.6,1.4,2.5,2.1V47.6z" fill="#2D2E2D"/></g></g><g><g><path d="M78.5,110.7H64.4c0.8-3.1,3-5.3,6.8-7.7l2.3-1.4c3.1-2,5.8-3.8,5.8-8c0-4.4-3.3-7.1-8.5-7.1      c-3.4,0-5.5,1-7.1,2.5c-1.2,1.2-1.9,2.7-2.3,4.2c0,0.2-0.1,0.3-0.1,0.5c0,0.8,0.5,1.2,1.3,1.4c0.2,0,0.3,0,0.5,0      c0.7,0,1.3-0.3,1.5-1.1c0.6-2.4,1.9-4.7,5.9-4.7c3.2,0,5.3,1.6,5.3,4.1c0,2.6-1.4,3.9-4.8,6.1l-2.4,1.5      c-3.2,2.1-5.3,4.2-6.5,6.6c-0.5,1-1.3,2.7-1.3,3.9c0,1.4,0.8,2.1,2.1,2.1h15.6c0.8,0,1.3-0.7,1.3-1.5      C79.8,111.3,79.3,110.7,78.5,110.7z" fill="#E7E8E3"/><path d="M78.5,109.5H66.2c1-1.9,2.7-3.6,5.7-5.4l2.3-1.4c2.8-1.8,6.3-4,6.3-9.1c0-5-3.8-8.3-9.8-8.3      c-3.4,0-6,0.9-7.9,2.8c-1.2,1.2-2.2,2.9-2.6,4.8c0,0.2-0.1,0.5-0.1,0.8c0,1.3,0.9,2.3,2.3,2.6c0.3,0.1,0.6,0.1,0.8,0.1      c1.3,0,2.4-0.8,2.7-2c0.6-2.3,1.6-3.8,4.7-3.8c1,0,4.1,0.2,4.1,2.9c0,1.9-0.8,2.9-4.2,5.1l-2.4,1.5c-3.4,2.2-5.6,4.4-6.9,7      c-0.3,0.6-1.5,2.8-1.5,4.5c0,2,1.3,3.3,3.3,3.3h15.6c1.5,0,2.5-1.2,2.5-2.8C81,110.6,80,109.5,78.5,109.5z M78.5,112.5H62.9      c-0.6,0-0.8-0.2-0.8-0.8c0-0.8,0.6-2.3,1.2-3.3c1.2-2.2,3.1-4.2,6.1-6.1l2.4-1.5c3.1-2.1,5.4-3.8,5.4-7.2c0-3.2-2.7-5.4-6.6-5.4      c-5.7,0-6.7,4.2-7.1,5.6c0,0.1,0,0.1-0.3,0.1c-0.1,0-0.2,0-0.2,0c-0.2-0.1-0.3-0.1-0.3-0.2c0-0.1,0-0.2,0-0.2      c0.3-1.4,1-2.7,1.9-3.6c1.5-1.4,3.4-2.1,6.2-2.1c4.6,0,7.3,2.2,7.3,5.8c0,3.5-2,5-5.2,7l-2.3,1.4c-4.3,2.7-6.5,5.2-7.4,8.5      l-0.4,1.6l15.8,0c0,0,0,0.1,0,0.2C78.5,112.3,78.5,112.4,78.5,112.5z" fill="#E7E8E3"/></g><g><path d="M102.7,87H86.9c-0.9,0-1.4,0.7-1.4,1.5c0,0.9,0.5,1.5,1.4,1.5h13.9c-4.3,6.2-7.7,14.2-9.5,22      c0,0.1-0.1,0.3-0.1,0.4c0,0.9,0.8,1.4,1.7,1.4c0,0,0.1,0,0.1,0c0.9,0,1.5-0.4,1.8-1.5c1.8-8.4,4.8-15.7,8.6-21      c0.7-0.9,1.1-1.4,1.1-2.7C104.6,87.6,104,87,102.7,87z" fill="#E7E8E3"/><path d="M102.7,85.8H86.9c-1.5,0-2.6,1.2-2.6,2.8c0,1.6,1.1,2.8,2.6,2.8h11.5c-3.8,6.1-6.8,13.4-8.4,20.4      c-0.1,0.3-0.1,0.5-0.1,0.7c0,1.5,1.2,2.6,3,2.7H93c1.6,0,2.7-0.9,3-2.5c1.8-8.4,4.7-15.4,8.4-20.5l0.1-0.2      c0.6-0.9,1.3-1.7,1.3-3.2C105.8,86.9,104.7,85.8,102.7,85.8z M102.6,90.5l-0.1,0.2c-3.9,5.3-7,12.8-8.9,21.5      c-0.1,0.5-0.2,0.5-0.6,0.5l-0.1,0c-0.3,0-0.5-0.1-0.5-0.1c0-0.1,0-0.1,0-0.2c1.7-7.5,5.1-15.4,9.3-21.5l1.3-2h-2.4l-13.9,0      c0,0-0.1-0.1-0.1-0.3c0-0.2,0-0.3,0.1-0.3h15.8c0.4,0,0.5,0.1,0.5,0.1c0,0,0.1,0.1,0.1,0.4C103.3,89.5,103.1,89.8,102.6,90.5z" fill="#E7E8E3"/></g></g></g></g></svg>